<?xml version="1.0" encoding="UTF-8" standalone="no"?>
<!-- Generator: Adobe Illustrator 24.1.1, SVG Export Plug-In . SVG Version: 6.00 Build 0)  -->

<svg
   version="1.1"
   id="Layer_1"
   x="0px"
   y="0px"
   viewBox="0 0 512 512"
   style="enable-background:new 0 0 512 512;"
   xml:space="preserve"
   sodipodi:docname="url.svg"
   inkscape:version="1.2.2 (732a01da63, 2022-12-09)"
   xmlns:inkscape="http://www.inkscape.org/namespaces/inkscape"
   xmlns:sodipodi="http://sodipodi.sourceforge.net/DTD/sodipodi-0.dtd"
   xmlns="http://www.w3.org/2000/svg"
   xmlns:svg="http://www.w3.org/2000/svg"><defs
   id="defs11" /><sodipodi:namedview
   id="namedview9"
   pagecolor="#ffffff"
   bordercolor="#000000"
   borderopacity="0.25"
   inkscape:showpageshadow="2"
   inkscape:pageopacity="0.0"
   inkscape:pagecheckerboard="0"
   inkscape:deskcolor="#d1d1d1"
   showgrid="false"
   inkscape:zoom="1.2332937"
   inkscape:cx="262.71115"
   inkscape:cy="277.71164"
   inkscape:window-width="1920"
   inkscape:window-height="1051"
   inkscape:window-x="2391"
   inkscape:window-y="-9"
   inkscape:window-maximized="1"
   inkscape:current-layer="g6" />
<g
   id="g6">
	<path
   d="m 189.94935,309.7381 c 19.45688,19.84758 45.39939,29.92765 71.18562,29.92765 25.08296,0 50.40035,-9.53309 69.70095,-28.44299 l 0.15628,-0.15628 1.09396,-1.09396 88.53271,-88.53272 c 19.53503,-19.53502 29.45882,-45.39938 29.38068,-71.02933 0,-25.62995 -9.84565,-51.41618 -29.38068,-71.029341 v 0 C 401.08385,59.846108 375.21949,49.922318 349.58954,50.000458 c -25.62995,0 -51.41617,9.84565 -71.02934,29.380671 l -11.09589,11.095892 c -8.67355,8.673549 -8.67355,22.660619 0,31.334169 8.67355,8.67355 22.66063,8.67355 31.33418,0 l 11.09589,-11.09589 c 11.01775,-11.017749 25.23924,-16.409415 39.69516,-16.409415 14.45591,0 28.67741,5.469806 39.69516,16.409415 v 0 c 11.01775,11.01775 16.40942,25.23925 16.40942,39.69517 0,14.45591 -5.46981,28.67741 -16.40942,39.69516 l -88.45457,88.45457 -1.09396,1.09397 15.62801,15.62801 -15.47173,-15.78429 c -10.86147,10.62705 -24.69227,15.78429 -38.75748,15.78429 -14.45592,0 -28.67741,-5.4698 -39.53889,-16.64384 -8.59541,-8.75168 -22.58248,-8.90797 -31.33417,-0.31256 -8.75169,8.67355 -8.90797,22.66063 -0.31256,31.41232 z"
   id="path2"
   style="stroke-width:0.781401" />
	<path
   d="m 310.1288,190.18377 c -19.45688,-19.84758 -45.39939,-29.92765 -71.18562,-29.92765 -25.08296,0 -50.40035,9.53309 -69.70095,28.44299 l -0.15628,0.15628 -1.09396,1.09396 -88.610861,88.61085 c -19.535021,19.53503 -29.458811,45.39939 -29.380671,71.02934 0,25.62995 9.84565,51.41617 29.380671,71.02933 19.535021,19.53503 45.399391,29.45882 71.029341,29.38068 25.62995,0 51.41617,-9.84565 71.02933,-29.38068 v 0 l 11.0959,-11.09589 c 8.67354,-8.67355 8.67354,-22.66062 0,-31.33417 -8.67355,-8.67355 -22.66063,-8.67355 -31.33418,0 l -11.09589,11.09589 v 0 c -11.01775,11.01775 -25.23925,16.40942 -39.69516,16.40942 -14.45592,0 -28.67742,-5.46981 -39.69517,-16.40942 -11.017749,-11.01775 -16.409415,-25.23925 -16.409415,-39.69516 0,-14.45592 5.469806,-28.67741 16.409415,-39.69516 l 88.53272,-88.53272 1.09396,-1.09396 -15.62802,-15.62801 15.47174,15.78429 c 10.86147,-10.62705 24.69227,-15.78429 38.75748,-15.78429 v 0 c 14.45592,0 28.59927,5.4698 39.53888,16.64383 8.59541,8.75169 22.58249,8.90797 31.33418,0.31256 8.75169,-8.67355 8.90797,-22.66062 0.31256,-31.41231 z"
   id="path4"
   style="stroke-width:0.781401" />
</g>
</svg>
