<svg xmlns="http://www.w3.org/2000/svg" shape-rendering="geometricPrecision" text-rendering="geometricPrecision" image-rendering="optimizeQuality" fill-rule="evenodd" clip-rule="evenodd" viewBox="0 0 357 511.78"><path fill-rule="nonzero" d="M86.57 187.01c-.87 4.98-5.61 8.31-10.59 7.45-4.97-.87-8.31-5.61-7.44-10.59 4.64-26.42 18.56-49.64 38.28-66.17 19.41-16.28 44.41-26.07 71.69-26.07 27.27 0 52.28 9.79 71.68 26.07 19.72 16.53 33.64 39.76 38.28 66.17.87 4.98-2.47 9.72-7.44 10.59-4.98.86-9.72-2.47-10.59-7.45-3.88-22.07-15.51-41.48-31.98-55.29-16.21-13.59-37.12-21.78-59.95-21.78-22.84 0-43.75 8.19-59.96 21.78-16.47 13.81-28.1 33.22-31.98 55.29zm-32.84 35.12c-5.05 0-9.16-4.11-9.16-9.16 0-5.06 4.11-9.16 9.16-9.16h249.54c5.06 0 9.16 4.1 9.16 9.16 0 5.05-4.1 9.16-9.16 9.16h-3.45v101.49H281.5v-61.7h-37.68v61.7H225.5v-61.7h-37.69v61.7H169.5v-61.7h-37.69v61.7H113.5v-61.7H75.81v61.7H57.49V222.13h-3.76zm227.77 0H75.81v21.48H281.5v-21.48zm36.42 162.72v101.19H299.6V384.85h-34.48v101.19H246.8V384.85h-34.48v101.19H194V384.85h-34.48v101.19H141.2V384.85h-34.48v101.19H88.4V384.85H53.92v101.19H35.6V384.85h-.38c-5.31 0-10.13-2.16-13.62-5.65-3.48-3.49-5.65-8.31-5.65-13.62v-15.25h-2.3c-5.06 0-9.16-4.11-9.16-9.16 0-5.06 4.1-9.16 9.16-9.16h329.71c5.05 0 9.16 4.1 9.16 9.16 0 5.05-4.11 9.16-9.16 9.16h-2.3v15.25c0 5.3-2.17 10.13-5.66 13.62l-.69.62c-3.42 3.12-7.97 5.03-12.93 5.03h-3.86zM34.26 350.33v15.25c0 .26.12.5.29.67.18.18.41.29.67.29h286.56c.2 0 .39-.06.54-.16l.13-.13c.18-.18.29-.42.29-.67v-15.25H34.26zM9.16 511.78c-5.06 0-9.16-4.1-9.16-9.16 0-5.05 4.1-9.16 9.16-9.16h338.68c5.06 0 9.16 4.11 9.16 9.16 0 5.06-4.1 9.16-9.16 9.16H9.16zM129.41 165.8a5.735 5.735 0 0 1-7.85 1.95 5.735 5.735 0 0 1-1.95-7.85c4.07-6.74 9.04-12.48 14.81-17.16 5.79-4.71 12.37-8.31 19.61-10.75 2.99-1 6.23.61 7.23 3.6s-.61 6.22-3.6 7.22c-5.94 2-11.32 4.95-16.05 8.78-4.7 3.82-8.8 8.58-12.2 14.21zm55.23-150.71c39.66-27.42 42.63 26.86 81.59-7.03v55.3c-37.16 33.41-45.18-20.57-81.59 6.86V15.09zM174.84 0c4.18 0 7.57 3.39 7.57 7.57 0 2.78-1.5 5.2-3.72 6.52h.36V90.2h-8.42V14.09h.36a7.579 7.579 0 0 1-3.72-6.52c0-4.18 3.39-7.57 7.57-7.57z"/></svg>