<?xml version="1.0" encoding="utf-8"?><svg version="1.1" id="Layer_1" xmlns="http://www.w3.org/2000/svg" xmlns:xlink="http://www.w3.org/1999/xlink" x="0px" y="0px" viewBox="0 0 122.88 118.2" style="enable-background:new 0 0 122.88 118.2" xml:space="preserve"><style type="text/css">.st0{fill-rule:evenodd;clip-rule:evenodd;}</style><g><path class="st0" d="M62.33,31.54c-3.96,1.05-7.74,1.72-11.24,1.75c-16.48,0.15-4.72-7.26-12.15-15.44 C28.98,6.88,4.76,18.88,19.65,35.7c1.59,1.79,3.21,3.11,4.86,3.86c5.9,2.7,10-5.38,13.14,10.39c1.17,5.86-0.64,10.95-5.63,15.2 c-3.92-2.07-6.32-8.41-10.31-10.31C1.76,45.37-9.84,26.33,11.12,7.68C30.21-9.3,46.85,4.92,60.1,20.88 c16.84,16.01,33.39,33.77,49.94,51.52c1.68,1.8,3.36,3.6,5.03,5.4c0.36,0.32,0.71,0.65,1.05,0.99c4.18,4.18,6.76,9.95,6.76,16.33 c0,6.38-2.58,12.15-6.76,16.33c-4.18,4.18-9.95,6.76-16.33,6.76c-5.44,0-10.45-1.88-14.39-5.04l-0.04,0.11l-65.7-27.13l2.32-5.66 l56.41,23.29c-1.08-2.68-1.68-5.6-1.68-8.67c0-6.38,2.58-12.15,6.76-16.33c4.18-4.18,9.95-6.76,16.33-6.76 c0.53,0,1.05,0.02,1.57,0.05C88.4,58.18,75.42,44.37,62.33,31.54L62.33,31.54z M111.78,83.12l-0.03-0.03l-0.06,0.06l-0.79-0.85 c-2.97-2.58-6.86-4.14-11.1-4.14c-4.68,0-8.92,1.9-11.99,4.96c-3.07,3.07-4.96,7.31-4.96,11.99c0,4.68,1.9,8.92,4.96,11.99 c3.07,3.07,7.31,4.96,11.99,4.96c4.68,0,8.92-1.9,11.99-4.96c3.07-3.07,4.96-7.31,4.96-11.99 C116.74,90.43,114.85,86.19,111.78,83.12L111.78,83.12z"/></g></svg>