<?xml version="1.0" encoding="UTF-8" standalone="no"?>
<!-- Created with Inkscape (http://www.inkscape.org/) -->
<svg id="svg4476" xmlns:rdf="http://www.w3.org/1999/02/22-rdf-syntax-ns#" xmlns="http://www.w3.org/2000/svg" height="133" width="140" version="1.1" xmlns:cc="http://creativecommons.org/ns#" xmlns:dc="http://purl.org/dc/elements/1.1/">
 <defs id="defs4478">
  <clipPath id="clipPath290" clipPathUnits="userSpaceOnUse">
   <path id="path292" d="M86.309,688.36h23.771v-31.66h-23.771v31.66z"/>
  </clipPath>
  <clipPath id="clipPath274" clipPathUnits="userSpaceOnUse">
   <path id="path276" d="M58.242,688.36h28.15v-31.66h-28.15v31.66z"/>
  </clipPath>
  <clipPath id="clipPath260" clipPathUnits="userSpaceOnUse">
   <path id="path262" d="M113.9,692.65h11.72v-7.29h-11.72v7.29z"/>
  </clipPath>
  <clipPath id="clipPath244" clipPathUnits="userSpaceOnUse">
   <path id="path246" d="M84.525,706.82h29.995v-31.66h-29.995v31.66z"/>
  </clipPath>
  <clipPath id="clipPath228" clipPathUnits="userSpaceOnUse">
   <path id="path230" d="M58.242,706.82h27.088v-31.66h-27.088v31.66z"/>
  </clipPath>
  <clipPath id="clipPath214" clipPathUnits="userSpaceOnUse">
   <path id="path216" d="M117.22,709.96h11.72v-7.29h-11.72v7.29z"/>
  </clipPath>
  <clipPath id="clipPath198" clipPathUnits="userSpaceOnUse">
   <path id="path200" d="M93.836,725.28h23.764v-31.66h-23.764v31.66z"/>
  </clipPath>
  <clipPath id="clipPath182" clipPathUnits="userSpaceOnUse">
   <path id="path184" d="M58.242,725.28h34.426v-31.66h-34.426v31.66z"/>
  </clipPath>
  <clipPath id="clipPath168" clipPathUnits="userSpaceOnUse">
   <path id="path170" d="M145.48,729.19h11.72v-7.29h-11.72v7.29z"/>
  </clipPath>
  <clipPath id="clipPath152" clipPathUnits="userSpaceOnUse">
   <path id="path154" d="M114.13,744.2h30.27v-32.58h-30.27v32.58z"/>
  </clipPath>
  <clipPath id="clipPath136" clipPathUnits="userSpaceOnUse">
   <path id="path138" d="M86.3,743.74h28.29v-31.66h-28.29v31.66z"/>
  </clipPath>
  <clipPath id="clipPath120" clipPathUnits="userSpaceOnUse">
   <path id="path122" d="M58.242,743.74h26.904v-31.66h-26.904v31.66z"/>
  </clipPath>
  <clipPath id="clipPath104" clipPathUnits="userSpaceOnUse">
   <path id="path106" d="M145.48,762.2h23.76v-31.66h-23.76v31.66z"/>
  </clipPath>
  <clipPath id="clipPath88" clipPathUnits="userSpaceOnUse">
   <path id="path90" d="M117.22,762.2h26.86v-31.66h-26.86v31.66z"/>
  </clipPath>
  <clipPath id="clipPath72" clipPathUnits="userSpaceOnUse">
   <path id="path74" d="M86.024,762.66h30.276v-32.58h-30.276v32.58z"/>
  </clipPath>
  <clipPath id="clipPath56" clipPathUnits="userSpaceOnUse">
   <path id="path58" d="M58.242,762.2h26.858v-31.66h-26.858v31.66z"/>
  </clipPath>
 </defs>
 <metadata id="metadata4481">
  <rdf:RDF>
   <cc:Work rdf:about="">
    <dc:format>image/svg+xml</dc:format>
    <dc:type rdf:resource="http://purl.org/dc/dcmitype/StillImage"/>
    <dc:title/>
   </cc:Work>
  </rdf:RDF>
 </metadata>
 <g id="layer1" transform="translate(-305.62293,-465.58589)">
  <g id="g52" transform="matrix(1.2612238,0,0,-1.2552143,232.16712,1422.8902)">
   <g id="g60">
    <g id="g62" opacity="0.380005" clip-path="url(#clipPath56)">
     <g id="g64" transform="translate(85.1,730.5434)">
      <path id="path66" d="M0,0h-9.691v12.322h-7.476v-12.322h-9.691v31.657h9.691v-11.675h7.476v11.675h9.691v-31.657z" fill-rule="nonzero" fill="#009ddf"/>
     </g>
    </g>
   </g>
  </g>
  <g id="g68" transform="matrix(1.2612238,0,0,-1.2552143,232.16712,1422.8902)">
   <g id="g76">
    <g id="g78" opacity="0.380005" clip-path="url(#clipPath72)">
     <g id="g80" transform="translate(96.4068,746.2331)">
      <path id="path82" d="M0,0c0-3.045,0.323-8.905,4.753-8.905s4.753,5.86,4.753,8.905c0,3.092-0.461,9.277-4.753,9.277s-4.753-6.185-4.753-9.277m19.889,0.047c0-8.999-5.537-16.198-15.136-16.198s-15.136,7.199-15.136,16.198c0,9.46,5.491,16.382,15.136,16.382s15.136-6.922,15.136-16.382" fill-rule="nonzero" fill="#009ddf"/>
     </g>
    </g>
   </g>
  </g>
  <g id="g84" transform="matrix(1.2612238,0,0,-1.2552143,232.16712,1422.8902)">
   <g id="g92">
    <g id="g94" opacity="0.380005" clip-path="url(#clipPath88)">
     <g id="g96" transform="translate(144.0791,730.5434)">
      <path id="path98" d="M0,0h-9.691v12.322h-7.477v-12.322h-9.69v31.657h9.69v-11.675h7.477v11.675h9.691v-31.657z" fill-rule="nonzero" fill="#009ddf"/>
     </g>
    </g>
   </g>
  </g>
  <g id="g100" transform="matrix(1.2612238,0,0,-1.2552143,232.16712,1422.8902)">
   <g id="g108">
    <g id="g110" opacity="0.380005" clip-path="url(#clipPath104)">
     <g id="g112" transform="translate(169.2451,730.5434)">
      <path id="path114" d="M0,0h-23.766v31.657h23.766v-7.291h-14.26v-4.614h11.538v-7.061h-11.538v-5.123h14.26v-7.568z" fill-rule="nonzero" fill="#009ddf"/>
     </g>
    </g>
   </g>
  </g>
  <g id="g116" transform="matrix(1.2612238,0,0,-1.2552143,232.16712,1422.8902)">
   <g id="g124">
    <g id="g126" opacity="0.380005" clip-path="url(#clipPath120)">
     <g id="g128" transform="translate(70.6095,730.3586)">
      <path id="path130" d="M0,0c2.215,0,4.892,0.138,4.892,3.092,0,2.815-2.4,3.045-4.615,3.045h-2.815v-6.137h2.538zm-2.538-18.275h-9.83v31.657h12.922c3.092,0,6.553-0.091,9.275-1.661,2.954-1.753,4.708-4.892,4.708-8.306,0-3-1.154-5.861-3.508-7.754-2.445-1.984-5.584-2.445-8.63-2.445h-4.937v-11.491z" fill-rule="nonzero" fill="#009ddf"/>
     </g>
    </g>
   </g>
  </g>
  <g id="g132" transform="matrix(1.2612238,0,0,-1.2552143,232.16712,1422.8902)">
   <g id="g140">
    <g id="g142" opacity="0.380005" clip-path="url(#clipPath136)">
     <g id="g144" transform="translate(99.6829,730.9581)">
      <path id="path146" d="M0,0c2.123,0,4.661,0.323,4.661,3.046,0,1.061-0.554,2.077-1.523,2.584-0.831,0.415-1.846,0.415-2.769,0.415h-3.922v-6.045h3.553zm4.107-18.875l-4.614,12.091h-3.046v-12.091h-9.83v31.658h16.106c2.769,0,5.814-0.37,8.168-1.938,2.631-1.662,3.876-4.477,3.876-7.569,0-4.153-1.846-6.645-5.583-8.352l5.722-13.799h-10.799z" fill-rule="nonzero" fill="#009ddf"/>
     </g>
    </g>
   </g>
  </g>
  <g id="g148" transform="matrix(1.2612238,0,0,-1.2552143,232.16712,1422.8902)">
   <g id="g156">
    <g id="g158" opacity="0.380005" clip-path="url(#clipPath152)">
     <g id="g160" transform="translate(124.512,727.7732)">
      <path id="path162" d="M0,0c0-3.045,0.323-8.905,4.753-8.905s4.753,5.86,4.753,8.905c0,3.092-0.462,9.277-4.753,9.277-4.292,0-4.753-6.185-4.753-9.277m19.89,0.047c0-8.999-5.539-16.198-15.137-16.198-9.599,0-15.137,7.199-15.137,16.198,0,9.46,5.492,16.382,15.137,16.382s15.137-6.922,15.137-16.382" fill-rule="nonzero" fill="#009ddf"/>
     </g>
    </g>
   </g>
  </g>
  <g id="g164" transform="matrix(1.2612238,0,0,-1.2552143,232.16712,1422.8902)">
   <g id="g172">
    <g id="g174" opacity="0.380005" clip-path="url(#clipPath168)">
     <path id="path176" d="M157.2,721.9h-11.72v7.29h11.72v-7.29z" fill-rule="nonzero" fill="#009ddf"/>
    </g>
   </g>
  </g>
  <g id="g178" transform="matrix(1.2612238,0,0,-1.2552143,232.16712,1422.8902)">
   <g id="g186">
    <g id="g188" opacity="0.380005" clip-path="url(#clipPath182)">
     <g id="g190" transform="translate(92.6681,693.6237)">
      <path id="path192" d="M0,0h-9.045v22.612h-0.092l-5.769-22.612h-6.184l-5.953,22.612h-0.092v-22.612h-7.291v31.657h12.69l4.523-16.798h0.092l4.338,16.798h12.783v-31.657z" fill-rule="nonzero" fill="#009ddf"/>
     </g>
    </g>
   </g>
  </g>
  <g id="g194" transform="matrix(1.2612238,0,0,-1.2552143,232.16712,1422.8902)">
   <g id="g202">
    <g id="g204" opacity="0.380005" clip-path="url(#clipPath198)">
     <g id="g206" transform="translate(117.6031,693.6237)">
      <path id="path208" d="M0,0h-23.767v31.657h23.767v-7.291h-14.26v-4.614h11.537v-7.061h-11.537v-5.123h14.26v-7.568z" fill-rule="nonzero" fill="#009ddf"/>
     </g>
    </g>
   </g>
  </g>
  <g id="g210" transform="matrix(1.2612238,0,0,-1.2552143,232.16712,1422.8902)">
   <g id="g218">
    <g id="g220" opacity="0.380005" clip-path="url(#clipPath214)">
     <path id="path222" d="M128.94,702.67h-11.72v7.29h11.72v-7.29z" fill-rule="nonzero" fill="#009ddf"/>
    </g>
   </g>
  </g>
  <g id="g224" transform="matrix(1.2612238,0,0,-1.2552143,232.16712,1422.8902)">
   <g id="g232">
    <g id="g234" opacity="0.380005" clip-path="url(#clipPath228)">
     <g id="g236" transform="translate(77.393,675.1638)">
      <path id="path238" d="M0,0l-9.091,14.814-2.815,5.722-0.093-0.093,0.093-0.368c0.461-2.031,0.646-3.138,0.646-5.308v-14.767h-7.891v31.657h9.183l10.614-17.674,0.092,0.092-0.692,8.769v8.813h7.891v-31.657h-7.937z" fill-rule="nonzero" fill="#009ddf"/>
     </g>
    </g>
   </g>
  </g>
  <g id="g240" transform="matrix(1.2612238,0,0,-1.2552143,232.16712,1422.8902)">
   <g id="g248">
    <g id="g250" opacity="0.380005" clip-path="url(#clipPath244)">
     <g id="g252" transform="translate(101.1386,688.3161)">
      <path id="path254" d="M0,0l-2.584,9.183-2.585-9.183h5.169zm1.661-6.922h-8.445l-1.938-6.23h-7.891l9.829,31.657h10.245l9.922-31.657h-9.922l-1.8,6.23z" fill-rule="nonzero" fill="#009ddf"/>
     </g>
    </g>
   </g>
  </g>
  <g id="g256" transform="matrix(1.2612238,0,0,-1.2552143,232.16712,1422.8902)">
   <g id="g264">
    <g id="g266" opacity="0.380005" clip-path="url(#clipPath260)">
     <path id="path268" d="M125.62,685.36h-11.72v7.29h11.72v-7.29z" fill-rule="nonzero" fill="#009ddf"/>
    </g>
   </g>
  </g>
  <g id="g270" transform="matrix(1.2612238,0,0,-1.2552143,232.16712,1422.8902)">
   <g id="g278">
    <g id="g280" opacity="0.380005" clip-path="url(#clipPath274)">
     <g id="g282" transform="translate(69.3633,663.9944)">
      <path id="path284" d="M0,0c1.292,0,2.123-0.092,3.323,0.554,0.877,0.508,1.569,1.201,2.077,2.076,1.107,1.847,1.476,3.969,1.476,6.092s-0.6,4.892-1.938,6.646c-1.523,1.892-3,1.8-5.215,1.8h-1.107v-17.168h1.384zm-11.122,24.367h11.676c4.568,0,8.214-0.6,11.629-3.876,3.323-3.138,4.846-7.477,4.846-11.999,0-4.153-1.477-8.492-4.384-11.491-3.139-3.276-7.061-4.292-11.445-4.292h-12.322v31.658z" fill-rule="nonzero" fill="#009ddf"/>
     </g>
    </g>
   </g>
  </g>
  <g id="g286" transform="matrix(1.2612238,0,0,-1.2552143,232.16712,1422.8902)">
   <g id="g294">
    <g id="g296" opacity="0.380005" clip-path="url(#clipPath290)">
     <g id="g298" transform="translate(110.0756,656.7039)">
      <path id="path300" d="M0,0h-23.766v31.657h23.766v-7.292h-14.26v-4.613h11.537v-7.061h-11.537v-5.123h14.26v-7.568z" fill-rule="nonzero" fill="#009ddf"/>
     </g>
    </g>
   </g>
  </g>
 </g>
</svg>
